<?xml version="1.0" encoding="UTF-8"?>
<svg width="273px" height="273px" viewBox="0 0 273 273" version="1.1" xmlns="http://www.w3.org/2000/svg" xmlns:xlink="http://www.w3.org/1999/xlink">
    <!-- Generator: Sketch 49.3 (51167) - http://www.bohemiancoding.com/sketch -->
    <title>huh</title>
    <desc>Created with Sketch.</desc>
    <defs></defs>
    <g id="Page-1" stroke="none" stroke-width="1" fill="none" fill-rule="evenodd">
        <g id="huh" transform="translate(10.000000, 10.000000)">
            <path d="M117.048,158.48 L109.56,158.48 C107.256,149.264 103.224,136.88 103.224,127.664 C103.224,111.248 115.032,97.712 126.84,85.904 C138.648,74.096 150.168,63.44 150.168,53.36 C150.168,36.656 135.192,32.624 121.08,32.624 C114.168,32.624 97.176,35.504 95.736,44.432 C95.448,46.448 102.36,46.16 107.544,51.92 C110.712,55.376 112.728,60.56 112.728,65.168 C112.728,76.688 103.8,81.584 93.432,81.584 C82.2,81.584 75,73.232 75,62.288 C75,51.056 82.776,40.976 91.704,34.928 C103.224,27.152 110.712,26 124.248,26 C151.608,26 177.24,43.28 177.24,72.656 C177.24,96.56 163.416,106.352 145.56,119.312 C116.472,140.624 112.728,142.064 117.048,158.48 Z M117.624,179.792 C130.296,179.792 141.528,190.448 141.528,203.408 C141.528,216.656 130.584,227.024 117.624,227.024 C104.664,227.024 94.008,216.08 94.008,203.408 C94.008,190.736 104.952,179.792 117.624,179.792 Z" id="?" fill="#FFFFFF"></path>
            <circle id="Oval" stroke="#FFFFFF" stroke-width="20" cx="126.5" cy="126.5" r="126.5"></circle>
        </g>
    </g>
</svg>